<svg width="16" height="16" viewBox="0 0 16 16" fill="none" xmlns="http://www.w3.org/2000/svg">
<path d="M10.3604 11.0107C10.6633 11.3006 11.0361 11.5 11.5 11.5C11.0556 11.5 10.689 11.332 10.3604 11.0107ZM11.5303 11.498C11.97 11.472 12.3925 11.3164 12.7432 11.0498C12.8584 10.9621 12.9624 10.8622 13.0576 10.7549C13.0504 10.7636 13.0445 10.7735 13.0371 10.7822C12.7239 11.1487 12.2495 11.4887 11.5303 11.498ZM10.1465 10.7744C10.1916 10.8295 10.2363 10.8845 10.2852 10.9355C10.238 10.8852 10.1921 10.8314 10.1465 10.7744ZM9.06543 8.58203C9.04703 8.53104 9.02709 8.4803 9.00879 8.42871C9.02698 8.48016 9.04704 8.53086 9.06543 8.58203ZM8.28418 6.38477C8.35717 6.57322 8.42852 6.7653 8.49805 6.95996C8.42935 6.76713 8.35765 6.57481 8.28418 6.38477ZM8.17188 6.10156C8.18226 6.1269 8.19284 6.15222 8.20312 6.17773C8.19286 6.15223 8.18225 6.12692 8.17188 6.10156ZM8.02051 5.74707C8.02734 5.76234 8.03423 5.77762 8.04102 5.79297C8.03424 5.77761 8.02734 5.76235 8.02051 5.74707ZM7.84961 5.38672C7.85871 5.4049 7.86794 5.42307 7.87695 5.44141C7.86794 5.42306 7.85871 5.4049 7.84961 5.38672ZM7.66602 5.04199C7.68128 5.0687 7.69593 5.0959 7.71094 5.12305C7.69589 5.09588 7.68131 5.06866 7.66602 5.04199ZM7.49121 4.75488C7.50422 4.77479 7.5155 4.79618 7.52832 4.81641C7.50937 4.78681 7.49126 4.75671 7.47168 4.72754C7.47785 4.73684 7.48507 4.74549 7.49121 4.75488ZM5.7041 3.50977C6.4034 3.57302 6.93188 3.96662 7.38574 4.60645C6.97664 4.03894 6.43779 3.58151 5.7041 3.50977ZM5.4707 3.50098C5.03064 3.52685 4.60774 3.68338 4.25684 3.9502C4.14159 4.03787 4.0366 4.13688 3.94141 4.24414C3.94861 4.23548 3.95549 4.22643 3.96289 4.21777C4.2767 3.85065 4.75216 3.50815 5.47363 3.5L5.4707 3.50098ZM5.5 3.5C5.55841 3.5 5.61566 3.50259 5.67188 3.50684C5.61571 3.50224 5.55842 3.5 5.5 3.5Z" fill="#00E2CB" stroke="#00E2CB"/>
</svg>
