<svg width="120" height="28" viewBox="0 0 120 28" fill="none" xmlns="http://www.w3.org/2000/svg">
<g clip-path="url(#clip0_2356_8099)">
<path d="M114.715 6.45312H116.327V6.95411H115.84V8.60402H115.201L115.207 6.95411H114.715V6.45312ZM119.375 6.45312V8.60402H118.785L118.773 7.25344L118.219 8.60402H117.787L117.234 7.20478V8.60402H116.662V6.45312H117.508L118.025 7.83414L118.584 6.45312H119.375Z" fill="#FFFBF3"/>
<path d="M46.083 7.88672C51.9924 7.88672 55.9237 11.8974 55.9237 17.8863C55.9237 23.8753 51.9924 27.9618 46.083 27.9618C40.1738 27.9618 36.207 23.915 36.207 17.8863C36.207 11.8577 40.1738 7.88672 46.083 7.88672ZM46.0442 23.684C49.2465 23.684 51.3448 21.5432 51.3448 17.9261C51.3448 14.3088 49.2465 12.1682 46.0442 12.1682C42.8418 12.1682 40.7788 14.3088 40.7788 17.9261C40.7788 21.5432 42.8772 23.684 46.0442 23.684Z" fill="#FFFBF3"/>
<path d="M67.3938 27.954C61.07 27.954 57.7148 24.7547 57.7148 18.8211V0.716309H62.3397V8.4229H66.7357V12.6622H62.3397V18.789C62.3397 22.2955 63.7668 23.7217 67.3902 23.7217V27.9611V27.954H67.3938Z" fill="#FFFBF3"/>
<path d="M71.5168 0C73.0234 0 74.2054 1.16334 74.2054 2.56439C74.2054 4.03748 73.0234 5.1648 71.5168 5.1648C70.01 5.1648 68.8281 4.03748 68.8281 2.56439C68.8319 1.16694 70.01 0 71.5168 0ZM69.0735 8.19021H73.9561V27.6033H69.0735V8.19021Z" fill="#FFFBF3"/>
<path d="M85.3367 7.88672C91.3571 7.88672 95.3564 11.8974 95.3564 17.8863C95.3564 23.8753 91.3535 27.9618 85.3367 27.9618C79.32 27.9618 75.2812 23.915 75.2812 17.8863C75.2812 11.8577 79.32 7.88672 85.3367 7.88672ZM85.3008 23.684C88.5614 23.684 90.6979 21.5432 90.6979 17.9261C90.6979 14.3088 88.5614 12.1682 85.3008 12.1682C82.0403 12.1682 79.9398 14.3088 79.9398 17.9261C79.9398 21.5432 82.0763 23.684 85.3008 23.684Z" fill="#FFFBF3"/>
<path d="M115.073 16.0595V27.6033H110.396V16.1745C110.396 13.4251 108.368 12.1815 106.109 12.1815C103.85 12.1815 101.822 13.4215 101.822 16.1745V27.6033H97.1484V16.0595C97.1484 12.6883 99.6786 7.88672 106.109 7.88672C112.539 7.88672 115.073 12.6918 115.073 16.0595Z" fill="#FFFBF3"/>
<path d="M2.68863 5.37725C4.19531 5.37725 5.37725 4.20355 5.37725 2.66988C5.37725 1.21494 4.19531 0 2.68863 0C1.18194 0 0 1.21494 0 2.66988C0 4.2073 1.18194 5.37725 2.68863 5.37725Z" fill="#FFFBF3"/>
<path d="M0.359375 8.24561H5.01966V27.6037H3.96083C1.97283 27.6037 0.359375 25.9947 0.359375 24.0122V8.24561Z" fill="#FFFBF3"/>
<path d="M34.4127 0.716309V27.6026H29.5442V11.1252L23.2337 27.4493L23.2698 27.6026H18.4013L18.4374 27.4493L12.1268 11.1252V24.0391C12.1268 26.0061 10.5076 27.6026 8.51249 27.6026H7.16797L7.25472 0.716309H12.9075L20.8554 21.1883L28.7635 0.716309H34.4127Z" fill="#FFFBF3"/>
</g>
<defs>
<clipPath id="clip0_2356_8099">
<rect width="119.375" height="28" fill="white"/>
</clipPath>
</defs>
</svg>
