<svg width="26" height="26" viewBox="0 0 26 26" fill="none" xmlns="http://www.w3.org/2000/svg">
<path d="M16.4736 17.6L12.0016 13.128V5.59998H13.6016V12.464L17.6016 16.472L16.4736 17.6Z" fill="#3F75E5"/>
<path d="M12.8016 1.59998C11.3095 1.60019 9.8327 1.8998 8.45855 2.48107C7.08439 3.06233 5.84085 3.91344 4.80156 4.98398V1.59998H3.20156V7.99998H9.60156V6.39998H5.66556C7.16639 4.73221 9.20395 3.6428 11.4244 3.32094C13.6448 2.99908 15.9078 3.46511 17.8204 4.63809C19.733 5.81106 21.1744 7.61689 21.8941 9.74194C22.6139 11.867 22.5666 14.177 21.7605 16.2708C20.9544 18.3647 19.4403 20.11 17.4814 21.2037C15.5224 22.2975 13.2422 22.6705 11.0368 22.258C8.83135 21.8456 6.84008 20.6737 5.40876 18.9459C3.97744 17.2181 3.1965 15.0436 3.20156 12.8H1.60156C1.60156 15.0151 2.25843 17.1805 3.4891 19.0224C4.71977 20.8642 6.46898 22.2997 8.51551 23.1474C10.562 23.9951 12.814 24.2169 14.9866 23.7848C17.1592 23.3526 19.1548 22.2859 20.7212 20.7196C22.2875 19.1532 23.3542 17.1576 23.7864 14.985C24.2185 12.8124 23.9967 10.5605 23.149 8.51392C22.3013 6.46739 20.8658 4.71819 19.0239 3.48752C17.1821 2.25684 15.0167 1.59998 12.8016 1.59998Z" fill="#3F75E5"/>
</svg>
